<svg width="512" height="512" xmlns="http://www.w3.org/2000/svg">
 <!-- Created with UXWing SVG Editor - https://uxwing.com/svg-icon-editor/ -->

 <g>
  <title>background</title>
  <rect fill="none" id="canvas_background" height="514" width="514" y="-1" x="-1"/>
  <g display="none" overflow="visible" y="0" x="0" height="100%" width="100%" id="canvasGrid">
   <rect fill="url(#gridpattern)" stroke-width="0" y="0" x="0" height="100%" width="100%"/>
  </g>
 </g>
 <g>
  <title>Layer 1</title>
  <style transform="matrix(1.9290121985070527,0,0,1.9290121985070527,0,0) " type="text/css">.st0{fill-rule:evenodd;clip-rule:evenodd;}</style>
  <g stroke="null" id="svg_7">
   <g stroke="null" transform="matrix(4.1510029338216645,0,0,3.7663681734584675,-295.3812718066288,-265.33628480023555) " id="svg_5">
    <path fill="#000000" stroke="null" id="svg_6" d="m116.410403,122.010413l-0.04,0c-7.01,-0.79 -16.42,0.01 -20.78,0c-7.27,0.31 -14.84,6.62 -19.29,16.01c-2.61,5.51 -3.3,9.66 -3.73,15.55c-0.87,5.94 -1.32,11.82 -1.29,17.62c1.43,9.03 12.88,6.35 13.85,0l1.39,-18.2c0.21,-2.75 0.4,-4.61 1.51,-7.23c0.52,-1.23 1.15,-2.28 1.89,-3.15l0.69,33.25l-0.39,2.78l31.49,0l-0.42,-3.1l0.61,-36.67c3.2,-1.29 5.96,-1.89 8.39,-1.99c-0.12,0.25 -0.25,0.5 -0.37,0.75c-2.61,5.51 -3.3,9.66 -3.73,15.55c-0.86,5.93 -1.32,11.81 -1.29,17.61c1.43,9.03 12.88,6.35 13.85,0l1.39,-18.2c0.21,-2.75 0.4,-4.61 1.51,-7.23c0.52,-1.23 1.15,-2.28 1.89,-3.15l0.69,33.25l-0.46,3.24l31.62,0l-0.48,-3.55l0.49,-28.62l0,0.56l0.1,-4.87c0.74,0.87 1.36,1.92 1.89,3.15c1.12,2.62 1.3,4.48 1.51,7.23l1.39,18.2c1.34,8.68 13.85,8.85 13.85,0c0.03,-5.81 -0.42,-11.68 -1.29,-17.61c-0.43,-5.89 -1.12,-10.04 -3.73,-15.55c-4.57,-9.65 -10.48,-14.76 -19.45,-15.81c-5.53,-0.45 -14.82,0.06 -20.36,-0.1c-1.38,0.19 -2.74,0.47 -4.06,0.87c-3.45,-0.48 -8.01,-1.07 -12.56,-1.09c-6.65,-0.02 -13.26,1.12 -16.28,0.5l0,0zm43.17,-35.29c9.01,0 16.32,7.31 16.32,16.32c0,9.01 -7.31,16.32 -16.32,16.32c-9.01,0 -16.32,-7.31 -16.32,-16.32c0,-9.01 7.31,-16.32 16.32,-16.32l0,0zm-53.74,0c9.01,0 16.32,7.31 16.32,16.32c0,9.01 -7.31,16.32 -16.32,16.32s-16.32,-7.31 -16.32,-16.32c0,-9.01 7.31,-16.32 16.32,-16.32l0,0z" class="st0"/>
   </g>
  </g>
 </g>
</svg>